<svg width="28" height="28" viewBox="0 0 28 28" fill="none" xmlns="http://www.w3.org/2000/svg">
<g clip-path="url(#clip0_1:2555)">
<path d="M11.2113 9.83337L9.78833 18.1841H12.0642L13.4884 9.83337H11.2113Z" fill="white"/>
<path d="M7.88005 9.84282L5.65101 15.5378L5.41336 14.6779C4.97375 13.6418 3.72577 12.1538 2.26062 11.2161L4.29884 18.1801L6.707 18.176L10.2911 9.84106L7.88005 9.84282Z" fill="white"/>
<path d="M4.5494 10.4406C4.41711 9.93196 4.0337 9.78035 3.5578 9.76221H0.0292679L0 9.92845C2.74591 10.5946 4.56286 12.1996 5.3168 14.1296L4.5494 10.4406Z" fill="white"/>
<path d="M18.101 11.4344C18.8456 11.4227 19.3853 11.5855 19.8044 11.754L20.0099 11.8506L20.3178 10.0407C19.867 9.87152 19.1605 9.69006 18.279 9.69006C16.03 9.69006 14.4449 10.8227 14.4326 12.4459C14.418 13.6453 15.5617 14.315 16.4257 14.7148C17.3125 15.1245 17.6099 15.385 17.6058 15.7509C17.5988 16.3099 16.8987 16.5663 16.2449 16.5663C15.3335 16.5663 14.8494 16.4404 14.1019 16.129L13.8086 15.9955L13.4884 17.8646C14.0211 18.0981 15.0039 18.2989 16.0242 18.3095C18.4165 18.3095 19.9712 17.1903 19.9876 15.4558C19.9976 14.507 19.3906 13.7829 18.0753 13.1887C17.2792 12.8012 16.7922 12.5437 16.7968 12.1527C16.7968 11.8055 17.2101 11.4344 18.101 11.4344Z" fill="white"/>
<path d="M26.1584 9.84277H24.4C23.8539 9.84277 23.4476 9.99145 23.2076 10.5358L19.8284 18.1888H22.2184C22.2184 18.1888 22.6082 17.1597 22.6966 16.9344C22.9583 16.9344 25.2804 16.9379 25.6111 16.9379C25.679 17.2294 25.8886 18.1888 25.8886 18.1888H28L26.1584 9.84277ZM23.3516 15.2251C23.539 14.7457 24.2584 12.8913 24.2584 12.8913C24.2461 12.9141 24.4439 12.4084 24.5616 12.0941L24.7149 12.814C24.7149 12.814 25.151 14.8078 25.2423 15.2251H23.3516Z" fill="white"/>
</g>
<defs>
<clipPath id="clip0_1:2555">
<rect width="28" height="28" fill="white"/>
</clipPath>
</defs>
</svg>
