<svg width="40" height="40" viewBox="0 0 40 40" fill="none" xmlns="http://www.w3.org
2000/svg">
<path d="M0 20C0 8.95431 8.95431 0 20 0C31.0457 0 40 8.95431 40 20C40 31.0457 31.0457
40 20 40C8.95431 40 0 31.0457 0 20Z" fill="#FF3636"/>
<g clip-path="url(#clip0_21:10363)">
<path d="M30.0003 11.6171C30.0003 14.0992 30.0003 16.5768 30.0003 19.091C29.8192
18.8221 29.6681 18.5888 29.5076 18.361C28.1739 16.4671 26.5044 14.8858 24.2469
13.8952C23.0463 13.3685 21.8478 13.0607 20.6547 12.969C18.7852 12.8254 16.9289
13.2122 15.0984 14.1183C12.9478 15.1828 11.3662 16.7797 10.1062 18.657C10.0811
18.6945 10.0545 18.7312 10.0001 18.809C10.0001 16.2912 10.0001 13.8051 10.0001
11.3112C10.0001 10.8744 10.5771 10 11.683 10C17.2379 10 22.7907 10 28.3655 10C29.3753
10 30.0003 10.6119 30.0003 11.6171Z" fill="white"/>
<path d="M29.995 22.7164C27.1433 19.9879 23.8928 18.255 19.99 18.3148C16.1367
18.3738 12.8346 19.9659 10.0012 22.7264C10.0012 22.1743 9.99622 21.6709 10.0064
21.1679C10.008 21.0872 10.0669 20.9999 10.1171 20.929C12.1567 18.0505 14.8217 16.1624
18.2661 15.6037C21.3389 15.1053 24.1572 15.8616 26.7114 17.6767C27.9305 18.5431
28.9611 19.6139 29.8225 20.8543C29.9223 20.998 29.9776 21.2005 29.9873
21.3796C30.0108 21.8104 29.995 22.2434 29.995 22.7164Z" fill="white"/>
<path d="M29.9952 26.3635C23.3202 23.7006 16.6817 23.7002 10.0034 26.3608C10.0034
25.8997 9.99033 25.4241 10.0153 24.9502C10.0199 24.8627 10.1685 24.7698 10.2675
24.7007C11.9009 23.5606 13.7278 22.8147 15.6921 22.3498C17.0888 22.0192 18.5132
21.7898 19.9461 21.8208C23.5052 21.8979 26.8442 22.7025 29.7685 24.7207C29.9369
24.8369 30.0073 24.9626 29.9997 25.16C29.9844 25.5572 29.9952 25.9551 29.9952
26.3635Z" fill="white"/>
<path d="M28.5098 29.9998C22.9064 29.9998 17.3319 29.9998 11.7314 29.9998C10.337
29.9998 9.98462 29.3536 10.0005 28.8525C10.0024 28.7927 10.1313 28.3309 10.2085
28.314C11.0713 28.1263 11.9312 27.9167 12.802 27.7774C15.7454 27.3064 18.7134 27.2126
21.6855 27.3037C24.3396 27.3849 26.9784 27.6275 29.564 28.2936C29.8824 28.3756
30.0303 28.4866 29.9951 28.842C29.9585 29.2132 30.0002 29.9998 28.5098 29.9998Z"
fill="white"/>
</g>
<defs>
<clipPath id="clip0_21:10363">
<rect x="10" y="10" width="20.0003" height="19.9997" rx="4" fill="white"/>
</clipPath>
</defs>
</svg>